<svg xmlns="http://www.w3.org/2000/svg" viewBox="0 0 485.57 128.36"><defs><style>.cls-1{fill:#101e2f;}.cls-2{fill:none;stroke:#101e2f;stroke-miterlimit:10;stroke-width:7px;}.cls-3{fill:#111e2f;}</style></defs><g id="Layer_2" data-name="Layer 2"><g id="Layer_1-2" data-name="Layer 1"><path class="cls-1" d="M114.23,128.36a3.75,3.75,0,0,1-2.71-1.37c-2.35-2.75-5.77-6.66-8.56-9.78l-.06-.07-.05-.07A80.89,80.89,0,0,1,96.67,108c-1.18.81-2.36,1.53-3.41,2.17a3.22,3.22,0,0,1-1.69.53A2.76,2.76,0,0,1,89,108.86,67.9,67.9,0,0,1,83.84,90.2c-1.8,1-3.53,1.9-5.24,2.66a3.47,3.47,0,0,1-1.4.33,2.76,2.76,0,0,1-2.6-1.86C69.81,80.17,68,68.7,69.44,58l-1.79.11-.34,0a2.7,2.7,0,0,1-2.06-.83,2.89,2.89,0,0,1-.75-2.22c.75-23.45,13.3-43.3,32-50.57,4.63-2,12.28-4.34,15.25-4.43l.68,0,1.48,0a36.79,36.79,0,0,1,3.72.25,42.69,42.69,0,0,1,8.88,2.14c22.53,6.82,36.26,26,37.63,52.52a3.14,3.14,0,0,1-.77,2.36,2.78,2.78,0,0,1-2.09.83h0l-.42,0c-.47,0-.94-.06-1.4-.08h-.24a53.46,53.46,0,0,1,.08,13.75A67.17,67.17,0,0,1,154,91.44a2.73,2.73,0,0,1-2.53,1.76,3.4,3.4,0,0,1-1.35-.31,56.5,56.5,0,0,1-5.32-2.69,68.32,68.32,0,0,1-5,18.35,2.93,2.93,0,0,1-2.64,2.17,3.59,3.59,0,0,1-1.9-.66c-1.06-.61-2.13-1.29-3.25-2.06a77.22,77.22,0,0,1-6.21,9.1l-.2.26-.22.15-.17.24a5.65,5.65,0,0,1-.77,1l-.57.62c-.5.53-1,1.06-1.47,1.61a69.21,69.21,0,0,1-5,5.78A4.31,4.31,0,0,1,114.23,128.36Zm-10.37-25.68a61.45,61.45,0,0,0,10.44,13.76,60.21,60.21,0,0,0,10.46-13.76,56.37,56.37,0,0,1-4.25-4.11c-1.24,1.24-2.61,2.49-4.24,3.86a3,3,0,0,1-2,.78,3,3,0,0,1-2-.78c-1.64-1.38-3-2.63-4.24-3.86A59,59,0,0,1,103.86,102.68Zm22.58-10.75a98,98,0,0,0,7.91,7.35A64.85,64.85,0,0,0,137,85.09v0c-1.38-1-2.65-2.1-3.85-3.16A67.12,67.12,0,0,1,126.44,91.93ZM91.57,85.06a69.63,69.63,0,0,0,2.69,14.22,11.49,11.49,0,0,1,.88-.8,77.08,77.08,0,0,0,7-6.55,65.38,65.38,0,0,1-6.72-10A49.92,49.92,0,0,1,91.57,85.06ZM102,75.13A63.54,63.54,0,0,0,114.3,92.2a63.4,63.4,0,0,0,12.36-17.07,47,47,0,0,1-4.76-7,54.94,54.94,0,0,1-5.52,6.21,3,3,0,0,1-2.07.93,2.9,2.9,0,0,1-2.07-.93,57.77,57.77,0,0,1-5.53-6.2A46.28,46.28,0,0,1,102,75.13ZM78.57,56.93a43.34,43.34,0,0,0-.75,7.86,59.49,59.49,0,0,0,2.69,17C90.79,75.53,97.67,68,101,59.52a52.11,52.11,0,0,1-4.09-9.31A63.61,63.61,0,0,1,78.57,56.93Zm49.05,2.57c3.27,8.49,10.15,16,20.48,22.33a60.82,60.82,0,0,0,2.59-14,45.12,45.12,0,0,0-.64-10.91,65.25,65.25,0,0,1-18.36-6.72A53.78,53.78,0,0,1,127.62,59.5ZM114.31,10.64c-14.13,17.78-14.12,35.09,0,52.82,5.63-7.08,13.17-19.62,10-33.12C122.72,23.6,119.46,17.14,114.31,10.64Zm19.36,30.41a2.56,2.56,0,0,0,.58.43c6.59,4.12,14.12,6.1,20.92,7.53C152,29.3,142,16.47,125.32,10.77c6.5,10.08,9.3,20.07,8.35,29.78a1.46,1.46,0,0,0,0,.5ZM103.23,10.83c-1.48.52-2.93,1.1-4.32,1.73C87.11,17.53,78.65,27.87,75,41.7a66,66,0,0,0-1.57,7.2c8.59-1.49,15.62-4,21.49-7.82C93.65,29.39,98.12,18.79,103.23,10.83Z"/><path class="cls-1" d="M161.88,55C160.67,31.46,149.2,11.6,125.8,4.52a40.63,40.63,0,0,0-8.41-2,29.09,29.09,0,0,0-5.59-.19c-2.48.07-9.83,2.27-14.48,4.26C77.71,14.16,67.38,35,66.74,55.16c0,.63.2.73.75.69,1.51-.11,3-.18,4.58-.26-2.18,11.87-.14,23.85,4.58,34.85.25.56.49.62,1,.37A60.26,60.26,0,0,0,85,86.88c.31-.19.66-.58.71.22a65.9,65.9,0,0,0,5.3,20.83c.27.61.49.67,1,.33a56.35,56.35,0,0,0,4.84-3.21c.38-.3.55-.27.77.16a70.36,70.36,0,0,0,6.92,10.51c2.61,2.92,6.11,6.91,8.54,9.76.83.9,1.38.9,2.49-.29a64.78,64.78,0,0,0,4.94-5.65c.71-.82,1.46-1.61,2.19-2.41.46-.41.67-1,1.18-1.4a69.49,69.49,0,0,0,7-10.63c.24-.47.43-.24.68-.06a49.5,49.5,0,0,0,4.63,3.07c1,.55,1,.56,1.39-.46a65.89,65.89,0,0,0,5.16-20.37c.07-.74.24-.73.8-.37A54.52,54.52,0,0,0,151,90.84c.46.2.7.2.94-.32a64.52,64.52,0,0,0,5.13-19,50.54,50.54,0,0,0-.43-15.33c-.12-.59.11-.65.58-.57,1.27.2,2.56.16,3.83.27C161.75,55.92,161.91,55.71,161.88,55ZM113.82,7.69c.37-.44.56-.49,1,0,5.47,6.55,9.73,13.74,11.66,22.15,3.15,13.28-3.24,26.62-11.68,36.6-.25.3-.42.6-.84.1C97.33,46.85,97.29,27.4,113.82,7.69Zm8.82,57a43.79,43.79,0,0,0,6.18,9.5,1,1,0,0,1,.16,1.22,66.24,66.24,0,0,1-14.21,19.44c-.35.34-.56.37-.92,0A66.77,66.77,0,0,1,99.63,75.47a1,1,0,0,1,.2-1.28A44.83,44.83,0,0,0,106.35,64a62.86,62.86,0,0,0,7.46,8.84c.43.42.64.34,1,0a62.42,62.42,0,0,0,7.33-8.66C122.5,64.21,122.53,64.51,122.64,64.73Zm-51-13.06c-.74.12-.89,0-.78-.76a75.57,75.57,0,0,1,2-9.78C76.41,27.59,84.89,16,98,10.52a59.42,59.42,0,0,1,9.79-3.41l.64-.13s.08.06.18.12c-7.47,9.67-12.94,21.8-11.37,34.26a1.15,1.15,0,0,1-.62,1.31c-6.92,4.55-14.75,7-22.84,8.45C73.07,51.28,72.4,51.56,71.68,51.67ZM80,84.74c-.61.36-.82.3-1.05-.4a62.73,62.73,0,0,1-3.38-19.57,44,44,0,0,1,1-9.13.85.85,0,0,1,.8-.74,60.88,60.88,0,0,0,20.36-7.76c.38-.24.57-.28.71.24a48.42,48.42,0,0,0,4.75,11.45,1.21,1.21,0,0,1,0,1.15C99.08,70.91,89.91,79,80,84.74ZM96.57,100.2a32.19,32.19,0,0,1-2.83,2.5c-.51.34-.64.22-.81-.28A69.94,69.94,0,0,1,89.3,84.76c-.15-.48.2-1,.85-1.44a47.56,47.56,0,0,0,5.42-4.6c.4-.39.58-.41.85.14a62.45,62.45,0,0,0,8.23,12.55c.42.5.33.77-.07,1.21A77.54,77.54,0,0,1,96.57,100.2ZM127.13,103a62.47,62.47,0,0,1-12.79,16.45c-.23,0-.33-.18-.46-.31a64.34,64.34,0,0,1-12.47-16.3.82.82,0,0,1,.24-1.22,58.54,58.54,0,0,0,5.9-5.78c.43-.48.64-.45,1.06,0a55.46,55.46,0,0,0,5.18,4.87.66.66,0,0,0,1,0,59.67,59.67,0,0,0,5.25-4.93c.38-.41.57-.39.93,0a57.44,57.44,0,0,0,5.85,5.72A1,1,0,0,1,127.13,103Zm12.11-17.77a67.83,67.83,0,0,1-3.56,17.19c-.15.45-.31.67-.76.28A110.32,110.32,0,0,1,123.84,92.4c-.29-.32-.23-.54,0-.84a64.61,64.61,0,0,0,8.38-12.76c.23-.46.38-.49.75-.13a57.75,57.75,0,0,0,5.86,5C139.3,84,139.29,84,139.24,85.25ZM152.92,68a64.08,64.08,0,0,1-3.21,16.16c-.34,1-.34,1-1.22.52-9.87-5.76-19.06-13.83-23.12-24.81a1,1,0,0,1,0-.93,51.22,51.22,0,0,0,5-12.09,61.64,61.64,0,0,0,20.63,8,1.21,1.21,0,0,1,1.15,1.09A47.35,47.35,0,0,1,152.92,68Zm3.9-16.36c-8.3-1.66-16.46-3.69-23.76-8.26a2.76,2.76,0,0,1-1.62-3c1.22-12.42-4.13-23.73-11.57-33.41,23.09,5.17,34.79,21,37.82,43.87C157.82,51.79,157.81,51.83,156.82,51.63Z"/><circle class="cls-2" cx="12.54" cy="22.01" r="9.04"/><line class="cls-2" x1="80.95" y1="22.01" x2="20.01" y2="22.01"/><circle class="cls-2" cx="30.63" cy="46.97" r="9.04"/><line class="cls-2" x1="71.67" y1="46.97" x2="38.1" y2="46.97"/><path class="cls-2" d="M73.46,62.62h-6.3c-4.11,0-8,2.7-11,7.51h0c-2.9,4.81-6.84,7.51-11,7.51H34.88"/><circle class="cls-2" cx="28.24" cy="75.91" r="9.04"/><circle class="cls-2" cx="46.27" cy="101.24" r="9.04"/><line class="cls-2" x1="91.77" y1="101.24" x2="55.06" y2="101.24"/><path class="cls-3" d="M209.51,70a24.87,24.87,0,0,1,2.87,12.1A26.57,26.57,0,0,1,210.31,93a16.85,16.85,0,0,1-6,7.31,16.27,16.27,0,0,1-9.29,2.64H172.27V26.14H194a16.56,16.56,0,0,1,9.25,2.53,15.88,15.88,0,0,1,5.89,7,24.9,24.9,0,0,1,2,10.23,23.17,23.17,0,0,1-2.46,11.22,14.13,14.13,0,0,1-6.54,6.38Q206.65,64.76,209.51,70ZM182.84,57.82h9.67a7.11,7.11,0,0,0,5.82-2.47q2-2.48,2-7.1t-2-7.15a7.06,7.06,0,0,0-5.82-2.53h-9.67ZM199.5,87.74q2.16-2.64,2.16-7.48t-2.27-7.75a7.46,7.46,0,0,0-6.12-2.81H182.84V90.38H193.5A7.3,7.3,0,0,0,199.5,87.74Z"/><path class="cls-3" d="M239,43.85a11.43,11.43,0,0,1,7.52-2.75V57.27h-2.79c-3.33,0-5.83,1.14-7.52,3.41s-2.53,6.24-2.53,11.88v30.36H223.11V42h10.58v9.46A19.53,19.53,0,0,1,239,43.85Z"/><path class="cls-3" d="M295.94,42,271.11,127.9H259.85l8-26.52L251.06,42h11.87l10.8,42.57L284.68,42Z"/><path class="cls-3" d="M328.5,43.69a18.56,18.56,0,0,1,5.59,7V42h10.66V98.36a45.48,45.48,0,0,1-2.34,15.13,23.73,23.73,0,0,1-7,10.56,17.14,17.14,0,0,1-11.33,3.9,19.2,19.2,0,0,1-14.62-6q-5.71-6-6.46-16.5h10.5a11.68,11.68,0,0,0,3.59,6.66,9.64,9.64,0,0,0,6.68,2.47,8.8,8.8,0,0,0,7.48-4q2.88-4,2.87-12.16V93.9a20,20,0,0,1-5.62,7.15,12.8,12.8,0,0,1-8.2,2.86,14.1,14.1,0,0,1-9.67-4,26.5,26.5,0,0,1-6.91-11.16,49.84,49.84,0,0,1-2.54-16.56,48.93,48.93,0,0,1,2.54-16.39,25.83,25.83,0,0,1,6.87-11A14.27,14.27,0,0,1,320.27,41,13.21,13.21,0,0,1,328.5,43.69Zm4.08,19.14a14.28,14.28,0,0,0-4.08-6.16A8.45,8.45,0,0,0,323,54.52a8.29,8.29,0,0,0-5.44,2.09,14.68,14.68,0,0,0-4,6.11A26.18,26.18,0,0,0,312,72.23a27.17,27.17,0,0,0,1.55,9.63,15.26,15.26,0,0,0,4.08,6.32,8.06,8.06,0,0,0,5.4,2.2,8.44,8.44,0,0,0,5.51-2.14,14.35,14.35,0,0,0,4.08-6.16,27.35,27.35,0,0,0,1.51-9.63A27.25,27.25,0,0,0,332.58,62.83Z"/><path class="cls-3" d="M382,43.69a18.56,18.56,0,0,1,5.59,7V42h10.66V98.36a45.47,45.47,0,0,1-2.35,15.13,23.64,23.64,0,0,1-7,10.56,17.15,17.15,0,0,1-11.34,3.9,19.2,19.2,0,0,1-14.61-6q-5.71-6-6.46-16.5H367a11.68,11.68,0,0,0,3.59,6.66,9.62,9.62,0,0,0,6.68,2.47,8.82,8.82,0,0,0,7.48-4q2.88-4,2.87-12.16V93.9a19.91,19.91,0,0,1-5.63,7.15,12.75,12.75,0,0,1-8.19,2.86,14.1,14.1,0,0,1-9.67-4,26.61,26.61,0,0,1-6.92-11.16,50.11,50.11,0,0,1-2.53-16.56,49.19,49.19,0,0,1,2.53-16.39,25.94,25.94,0,0,1,6.88-11A14.27,14.27,0,0,1,373.76,41,13.23,13.23,0,0,1,382,43.69Zm4.08,19.14A14.46,14.46,0,0,0,382,56.67a8.45,8.45,0,0,0-5.51-2.15A8.29,8.29,0,0,0,371,56.61a14.68,14.68,0,0,0-4,6.11,26.18,26.18,0,0,0-1.55,9.51A27.17,27.17,0,0,0,367,81.86a15.26,15.26,0,0,0,4.08,6.32,8.06,8.06,0,0,0,5.4,2.2A8.44,8.44,0,0,0,382,88.24a14.53,14.53,0,0,0,4.08-6.16,27.35,27.35,0,0,0,1.51-9.63A27.25,27.25,0,0,0,386.07,62.83Z"/><path class="cls-3" d="M421.43,26.14v76.78H410.85V26.14Z"/><path class="cls-3" d="M445,98.63a34.23,34.23,0,0,1-9.82-14,53.7,53.7,0,0,1-3.63-20.3,53.32,53.32,0,0,1,3.63-20.18,34.2,34.2,0,0,1,9.82-14,20.86,20.86,0,0,1,27.24,0,34.07,34.07,0,0,1,9.74,14,53.71,53.71,0,0,1,3.59,20.18A54.09,54.09,0,0,1,482,84.61a33.88,33.88,0,0,1-9.78,14,20.81,20.81,0,0,1-27.2,0Zm22-11.82a20.45,20.45,0,0,0,5.66-9,40.92,40.92,0,0,0,2-13.53,40.42,40.42,0,0,0-2-13.47A20.1,20.1,0,0,0,467,42a13,13,0,0,0-16.81,0,19.91,19.91,0,0,0-5.71,8.86,40.42,40.42,0,0,0-2,13.47,40.92,40.92,0,0,0,2,13.53,20.25,20.25,0,0,0,5.71,9,12.85,12.85,0,0,0,16.81,0Z"/></g></g></svg>